<svg xmlns="http://www.w3.org/2000/svg" viewBox="0 0 400 300" width="400" height="300" role="img">
  <rect width="400" height="300" fill="#fdeadb"/>
  <circle cx="330" cy="58" r="34" fill="#fff" opacity=".35"/>
  <circle cx="62" cy="46" r="20" fill="#fff" opacity=".3"/>
  
  <ellipse cx="200" cy="252" rx="112" ry="14" fill="#e6dccf" opacity=".4"/>
  <path d="M92 168 q8 76 108 78 q100 -2 108 -78 Z" fill="#ffffff" stroke="#e6dccf" stroke-width="3"/>
  <ellipse cx="200" cy="168" rx="110" ry="20" fill="#ffffff" stroke="#e6dccf" stroke-width="3"/>
  <ellipse cx="200" cy="166" rx="96" ry="16" fill="#f7f2e6"/>
  <clipPath id="cdudh-sagu"><ellipse cx="200" cy="166" rx="96" ry="16"/></clipPath>
  <g clip-path="url(#cdudh-sagu)"><ellipse cx="218.8" cy="161.9" rx="10.1" ry="7.3" fill="#eae0c8" opacity=".92"/><ellipse cx="161.4" cy="169.9" rx="5.2" ry="3.7" fill="#d9cba8" opacity=".92"/><ellipse cx="180.5" cy="170.1" rx="11.3" ry="8.1" fill="#eae0c8" opacity=".92"/><ellipse cx="233.6" cy="173.4" rx="7.9" ry="5.7" fill="#d9cba8" opacity=".92"/><ellipse cx="197.0" cy="160.7" rx="6.9" ry="5.0" fill="#eae0c8" opacity=".92"/><ellipse cx="215.0" cy="162.3" rx="6.0" ry="4.3" fill="#d9cba8" opacity=".92"/><ellipse cx="221.6" cy="157.2" rx="6.0" ry="4.3" fill="#eae0c8" opacity=".92"/><ellipse cx="241.0" cy="170.4" rx="10.2" ry="7.3" fill="#d9cba8" opacity=".92"/><ellipse cx="211.6" cy="165.2" rx="10.1" ry="7.3" fill="#eae0c8" opacity=".92"/><ellipse cx="198.3" cy="167.9" rx="10.3" ry="7.4" fill="#d9cba8" opacity=".92"/></g>
</svg>
