<svg xmlns="http://www.w3.org/2000/svg" viewBox="0 0 400 300" width="400" height="300" role="img">
  <rect width="400" height="300" fill="#fbe9ee"/>
  <circle cx="330" cy="58" r="34" fill="#fff" opacity=".35"/>
  <circle cx="62" cy="46" r="20" fill="#fff" opacity=".3"/>
  
  <ellipse cx="200" cy="252" rx="112" ry="14" fill="#e6dccf" opacity=".4"/>
  <path d="M92 168 q8 76 108 78 q100 -2 108 -78 Z" fill="#ffffff" stroke="#e6dccf" stroke-width="3"/>
  <ellipse cx="200" cy="168" rx="110" ry="20" fill="#ffffff" stroke="#e6dccf" stroke-width="3"/>
  <ellipse cx="200" cy="166" rx="96" ry="16" fill="#f7f0e0"/>
  <clipPath id="cdudh-chira"><ellipse cx="200" cy="166" rx="96" ry="16"/></clipPath>
  <g clip-path="url(#cdudh-chira)"><ellipse cx="165.8" cy="173.1" rx="9.2" ry="6.6" fill="#f3e0a8" opacity=".92"/><ellipse cx="211.9" cy="169.7" rx="6.2" ry="4.4" fill="#e8c76a" opacity=".92"/><ellipse cx="224.2" cy="162.5" rx="8.3" ry="6.0" fill="#f3e0a8" opacity=".92"/><ellipse cx="184.5" cy="171.9" rx="9.6" ry="6.9" fill="#e8c76a" opacity=".92"/><ellipse cx="225.3" cy="174.9" rx="11.5" ry="8.3" fill="#f3e0a8" opacity=".92"/><ellipse cx="158.3" cy="159.6" rx="5.8" ry="4.2" fill="#e8c76a" opacity=".92"/><ellipse cx="256.4" cy="164.2" rx="6.5" ry="4.7" fill="#f3e0a8" opacity=".92"/><ellipse cx="207.5" cy="161.7" rx="10.8" ry="7.8" fill="#e8c76a" opacity=".92"/><ellipse cx="257.6" cy="167.4" rx="6.8" ry="4.9" fill="#f3e0a8" opacity=".92"/><ellipse cx="221.6" cy="159.3" rx="8.0" ry="5.8" fill="#e8c76a" opacity=".92"/></g>
</svg>
