<svg xmlns="http://www.w3.org/2000/svg" viewBox="0 0 400 300" width="400" height="300" role="img">
  <rect width="400" height="300" fill="#fbe9ee"/>
  <circle cx="330" cy="58" r="34" fill="#fff" opacity=".35"/>
  <circle cx="62" cy="46" r="20" fill="#fff" opacity=".3"/>
  
  <ellipse cx="200" cy="252" rx="112" ry="14" fill="#e6dccf" opacity=".4"/>
  <path d="M92 168 q8 76 108 78 q100 -2 108 -78 Z" fill="#ffffff" stroke="#e6dccf" stroke-width="3"/>
  <ellipse cx="200" cy="168" rx="110" ry="20" fill="#ffffff" stroke="#e6dccf" stroke-width="3"/>
  <ellipse cx="200" cy="166" rx="96" ry="16" fill="#f0e3c0"/>
  <clipPath id="cmach-pasta"><ellipse cx="200" cy="166" rx="96" ry="16"/></clipPath>
  <g clip-path="url(#cmach-pasta)"><ellipse cx="223.0" cy="158.9" rx="8.4" ry="6.0" fill="#eba98a" opacity=".92"/><ellipse cx="219.6" cy="174.0" rx="7.0" ry="5.0" fill="#d9884f" opacity=".92"/><ellipse cx="160.0" cy="163.2" rx="10.8" ry="7.8" fill="#7fa356" opacity=".92"/><ellipse cx="245.5" cy="159.3" rx="6.9" ry="5.0" fill="#eba98a" opacity=".92"/><ellipse cx="210.3" cy="158.6" rx="10.7" ry="7.7" fill="#d9884f" opacity=".92"/><ellipse cx="238.0" cy="170.1" rx="6.8" ry="4.9" fill="#7fa356" opacity=".92"/><ellipse cx="236.2" cy="174.9" rx="7.5" ry="5.4" fill="#eba98a" opacity=".92"/><ellipse cx="200.5" cy="171.9" rx="8.2" ry="5.9" fill="#d9884f" opacity=".92"/><ellipse cx="262.1" cy="164.5" rx="9.9" ry="7.1" fill="#7fa356" opacity=".92"/><ellipse cx="178.1" cy="168.7" rx="7.3" ry="5.3" fill="#eba98a" opacity=".92"/></g>
</svg>
