<svg xmlns="http://www.w3.org/2000/svg" viewBox="0 0 400 300" width="400" height="300" role="img">
  <rect width="400" height="300" fill="#fbe9ee"/>
  <circle cx="330" cy="58" r="34" fill="#fff" opacity=".35"/>
  <circle cx="62" cy="46" r="20" fill="#fff" opacity=".3"/>
  
    <ellipse cx="200" cy="212" rx="140" ry="44" fill="#e6dccf" opacity=".5"/>
    <ellipse cx="200" cy="204" rx="138" ry="43" fill="#ffffff" stroke="#e6dccf" stroke-width="3"/>
    <ellipse cx="200" cy="200" rx="100" ry="31" fill="#ffffff" stroke="#e6dccf" stroke-width="2"/>
    <ellipse cx="200" cy="192" rx="84" ry="26" fill="#f6f2e8"/>
    <clipPath id="cmurgir-kolija"><ellipse cx="200" cy="192" rx="84" ry="26"/></clipPath>
    <g clip-path="url(#cmurgir-kolija)"><ellipse cx="197.8" cy="174.5" rx="7.2" ry="5.2" fill="#8a4030" opacity=".92"/><ellipse cx="212.6" cy="182.1" rx="11.9" ry="8.6" fill="#6d2f24" opacity=".92"/><ellipse cx="158.7" cy="205.5" rx="8.9" ry="6.4" fill="#c96b2f" opacity=".92"/><ellipse cx="146.3" cy="187.4" rx="5.5" ry="4.0" fill="#8a4030" opacity=".92"/><ellipse cx="178.3" cy="186.7" rx="5.3" ry="3.8" fill="#6d2f24" opacity=".92"/><ellipse cx="234.6" cy="181.2" rx="8.4" ry="6.0" fill="#c96b2f" opacity=".92"/><ellipse cx="230.1" cy="206.2" rx="10.8" ry="7.8" fill="#8a4030" opacity=".92"/><ellipse cx="210.7" cy="191.0" rx="6.5" ry="4.6" fill="#6d2f24" opacity=".92"/><ellipse cx="153.0" cy="180.6" rx="6.3" ry="4.6" fill="#c96b2f" opacity=".92"/></g>
</svg>
