<svg xmlns="http://www.w3.org/2000/svg" viewBox="0 0 400 300" width="400" height="300" role="img">
  <rect width="400" height="300" fill="#fbe9ee"/>
  <circle cx="330" cy="58" r="34" fill="#fff" opacity=".35"/>
  <circle cx="62" cy="46" r="20" fill="#fff" opacity=".3"/>
  
  <ellipse cx="200" cy="252" rx="112" ry="14" fill="#e6dccf" opacity=".4"/>
  <path d="M92 168 q8 76 108 78 q100 -2 108 -78 Z" fill="#ffffff" stroke="#e6dccf" stroke-width="3"/>
  <ellipse cx="200" cy="168" rx="110" ry="20" fill="#ffffff" stroke="#e6dccf" stroke-width="3"/>
  <ellipse cx="200" cy="166" rx="96" ry="16" fill="#f0c85c"/>
  <clipPath id="cpolenta-sobji"><ellipse cx="200" cy="166" rx="96" ry="16"/></clipPath>
  <g clip-path="url(#cpolenta-sobji)"><ellipse cx="220.6" cy="164.2" rx="8.1" ry="5.8" fill="#e8b93c" opacity=".92"/><ellipse cx="195.4" cy="164.5" rx="8.5" ry="6.1" fill="#e0762f" opacity=".92"/><ellipse cx="242.1" cy="164.3" rx="8.5" ry="6.1" fill="#7fa356" opacity=".92"/><ellipse cx="186.2" cy="165.6" rx="10.2" ry="7.3" fill="#e8b93c" opacity=".92"/><ellipse cx="167.3" cy="165.1" rx="5.2" ry="3.7" fill="#e0762f" opacity=".92"/><ellipse cx="190.0" cy="157.9" rx="9.1" ry="6.5" fill="#7fa356" opacity=".92"/><ellipse cx="157.9" cy="163.4" rx="7.9" ry="5.7" fill="#e8b93c" opacity=".92"/><ellipse cx="240.0" cy="162.2" rx="8.4" ry="6.0" fill="#e0762f" opacity=".92"/><ellipse cx="148.4" cy="169.2" rx="7.0" ry="5.1" fill="#7fa356" opacity=".92"/><ellipse cx="180.7" cy="163.3" rx="7.1" ry="5.1" fill="#e8b93c" opacity=".92"/></g>
</svg>
