<svg xmlns="http://www.w3.org/2000/svg" viewBox="0 0 400 300" width="400" height="300" role="img">
  <rect width="400" height="300" fill="#fbe9ee"/>
  <circle cx="330" cy="58" r="34" fill="#fff" opacity=".35"/>
  <circle cx="62" cy="46" r="20" fill="#fff" opacity=".3"/>
  
    <ellipse cx="200" cy="238" rx="118" ry="16" fill="#e6dccf" opacity=".45"/>
    <path d="M118 118 q0 -26 30 -26 h104 q30 0 30 26 v96 q0 14 -16 14 h-132 q-16 0 -16 -14 Z" fill="#ffffff" stroke="#e6dccf" stroke-width="3"/>
    <path d="M132 128 q0 -18 24 -18 h88 q24 0 24 18 v78 q0 8 -10 8 h-116 q-10 0 -10 -8 Z" fill="#f7f2e6"/>
    <ellipse cx="236.0" cy="178.2" rx="11.6" ry="8.4" fill="#e8c96a" opacity=".92"/><ellipse cx="170.1" cy="163.9" rx="9.6" ry="6.9" fill="#d9a24e" opacity=".92"/><ellipse cx="210.4" cy="177.2" rx="8.2" ry="5.9" fill="#e8c96a" opacity=".92"/><ellipse cx="207.5" cy="141.4" rx="6.7" ry="4.8" fill="#d9a24e" opacity=".92"/><ellipse cx="185.6" cy="169.4" rx="5.5" ry="4.0" fill="#e8c96a" opacity=".92"/><ellipse cx="192.9" cy="186.3" rx="7.1" ry="5.1" fill="#d9a24e" opacity=".92"/><ellipse cx="202.1" cy="141.7" rx="10.5" ry="7.6" fill="#e8c96a" opacity=".92"/><ellipse cx="174.9" cy="182.0" rx="6.5" ry="4.7" fill="#d9a24e" opacity=".92"/>
</svg>
