<svg xmlns="http://www.w3.org/2000/svg" viewBox="0 0 400 300" width="400" height="300" role="img">
  <rect width="400" height="300" fill="#fdeadb"/>
  <circle cx="330" cy="58" r="34" fill="#fff" opacity=".35"/>
  <circle cx="62" cy="46" r="20" fill="#fff" opacity=".3"/>
  
  <ellipse cx="200" cy="252" rx="112" ry="14" fill="#e6dccf" opacity=".4"/>
  <path d="M92 168 q8 76 108 78 q100 -2 108 -78 Z" fill="#ffffff" stroke="#e6dccf" stroke-width="3"/>
  <ellipse cx="200" cy="168" rx="110" ry="22" fill="#ffffff" stroke="#e6dccf" stroke-width="3"/>
  <ellipse cx="200" cy="166" rx="96" ry="18" fill="#a8683c"/>
  <clipPath id="czuppa-lenticchie"><ellipse cx="200" cy="166" rx="96" ry="18"/></clipPath>
  <g clip-path="url(#czuppa-lenticchie)"><ellipse cx="139.8" cy="159.8" rx="5.7" ry="4.1" fill="#8f5330" opacity=".92"/><ellipse cx="240.8" cy="164.1" rx="7.3" ry="5.3" fill="#d1552f" opacity=".92"/><ellipse cx="200.0" cy="166.0" rx="6.0" ry="4.3" fill="#e0a13f" opacity=".92"/><ellipse cx="223.8" cy="172.0" rx="5.1" ry="3.6" fill="#8f5330" opacity=".92"/><ellipse cx="147.5" cy="164.8" rx="8.6" ry="6.2" fill="#d1552f" opacity=".92"/><ellipse cx="147.2" cy="165.3" rx="11.6" ry="8.4" fill="#e0a13f" opacity=".92"/><ellipse cx="218.5" cy="170.6" rx="7.5" ry="5.4" fill="#8f5330" opacity=".92"/><ellipse cx="247.6" cy="166.9" rx="8.6" ry="6.2" fill="#d1552f" opacity=".92"/><ellipse cx="227.5" cy="158.3" rx="10.8" ry="7.8" fill="#e0a13f" opacity=".92"/><ellipse cx="142.8" cy="160.1" rx="5.2" ry="3.8" fill="#8f5330" opacity=".92"/></g>
</svg>
